<svg xmlns="http://www.w3.org/2000/svg" viewBox="0 0 200 320" fill="none">
  <defs>
    <linearGradient id="g3" x1="0%" y1="0%" x2="100%" y2="100%">
      <stop offset="0%" style="stop-color:#f0dcc4"/>
      <stop offset="100%" style="stop-color:#b8956a"/>
    </linearGradient>
    <linearGradient id="robe3" x1="0%" y1="0%" x2="0%" y2="100%">
      <stop offset="0%" style="stop-color:#2d4a3e"/>
      <stop offset="100%" style="stop-color:#142820"/>
    </linearGradient>
  </defs>
  <ellipse cx="100" cy="288" rx="72" ry="14" fill="rgba(0,0,0,0.25)"/>
  <path d="M54 122 Q100 92 146 122 L140 258 Q100 274 60 258 Z" fill="url(#robe3)" stroke="#5a8f78" stroke-width="1.2"/>
  <rect x="88" y="130" width="24" height="48" rx="2" fill="#e8dcc8" stroke="#8b7355" stroke-width="1"/>
  <line x1="92" y1="140" x2="108" y2="140" stroke="#6b5344" stroke-width="0.8"/>
  <line x1="92" y1="150" x2="108" y2="150" stroke="#6b5344" stroke-width="0.8"/>
  <line x1="92" y1="160" x2="106" y2="160" stroke="#6b5344" stroke-width="0.8"/>
  <circle cx="100" cy="74" r="36" fill="url(#g3)" stroke="#6b5344" stroke-width="1.5"/>
  <path d="M72 52 Q100 36 128 52 L124 44 Q100 30 76 44 Z" fill="#1a3028"/>
  <rect x="92" y="38" width="16" height="8" rx="1" fill="#c9a227"/>
  <ellipse cx="86" cy="76" rx="5" ry="6.5" fill="#fff"/>
  <ellipse cx="114" cy="76" rx="5" ry="6.5" fill="#fff"/>
  <circle cx="86" cy="77.5" r="2.2" fill="#1a1814"/>
  <circle cx="114" cy="77.5" r="2.2" fill="#1a1814"/>
  <path d="M93 94 Q100 98 107 94" stroke="#1a1814" stroke-width="1.5" fill="none"/>
  <path d="M88 100 Q100 88 112 100" stroke="#5a4030" stroke-width="1.2" fill="none"/>
</svg>
