<svg xmlns="http://www.w3.org/2000/svg" viewBox="0 0 200 320" fill="none">
  <defs>
    <linearGradient id="g2" x1="0%" y1="0%" x2="100%" y2="100%">
      <stop offset="0%" style="stop-color:#ffe8c8"/>
      <stop offset="100%" style="stop-color:#c49a6c"/>
    </linearGradient>
    <linearGradient id="robe2" x1="0%" y1="0%" x2="0%" y2="100%">
      <stop offset="0%" style="stop-color:#4a3d5c"/>
      <stop offset="100%" style="stop-color:#1e1828"/>
    </linearGradient>
  </defs>
  <ellipse cx="100" cy="288" rx="72" ry="14" fill="rgba(0,0,0,0.25)"/>
  <path d="M52 118 Q100 88 148 118 L142 262 Q100 278 58 262 Z" fill="url(#robe2)" stroke="#b8a4d9" stroke-width="1.2"/>
  <path d="M70 130 L100 210 L130 130" stroke="#6b5b7a" stroke-width="2" fill="none"/>
  <circle cx="100" cy="76" r="40" fill="url(#g2)" stroke="#8b6914" stroke-width="1.5"/>
  <ellipse cx="62" cy="70" rx="22" ry="12" fill="#3d2f4a" transform="rotate(-15 62 70)"/>
  <ellipse cx="138" cy="70" rx="22" ry="12" fill="#3d2f4a" transform="rotate(15 138 70)"/>
  <rect x="78" y="52" width="44" height="14" rx="3" fill="#2d2438"/>
  <ellipse cx="88" cy="78" rx="5" ry="7" fill="#fff"/>
  <ellipse cx="112" cy="78" rx="5" ry="7" fill="#fff"/>
  <circle cx="88" cy="80" r="2.5" fill="#1a1420"/>
  <circle cx="112" cy="80" r="2.5" fill="#1a1420"/>
  <path d="M90 96 Q100 108 110 96" stroke="#1a1420" stroke-width="2" fill="none" stroke-linecap="round"/>
  <circle cx="148" cy="175" r="14" fill="#e8c547" stroke="#a67c00" stroke-width="1.5"/>
  <circle cx="148" cy="175" r="8" fill="#f5e6a8"/>
</svg>
