<svg xmlns="http://www.w3.org/2000/svg" viewBox="0 0 260 108" aria-hidden="true">
  <defs>
    <linearGradient id="xySm" x1="8%" y1="0%" x2="92%" y2="100%">
      <stop offset="0%" stop-color="#ffffff"/>
      <stop offset="55%" stop-color="#f5f8fc"/>
      <stop offset="100%" stop-color="#e8edf5"/>
    </linearGradient>
  </defs>
  <path fill="rgba(226, 232, 240, 0.65)" d="M 28 78 C 14 74 10 56 28 48 C 40 32 72 28 100 40 C 120 28 158 32 188 52 C 218 48 248 68 238 88 C 228 98 198 96 168 88 C 132 98 92 92 58 82 C 40 82 30 80 28 78 Z" />
  <path
    fill="url(#xySm)"
    stroke="rgba(148, 163, 184, 0.35)"
    stroke-width="0.7"
    d="M 22 72
       C 10 68 8 50 26 42
       C 38 26 70 22 98 34
       C 118 20 156 24 186 44
       C 214 40 244 60 234 82
       C 224 92 194 90 164 82
       C 128 92 88 86 54 76
       C 36 76 26 74 22 72 Z"
  />
</svg>
